<svg xmlns="http://www.w3.org/2000/svg" xmlns:xlink="http://www.w3.org/1999/xlink" width="432" height="958" viewBox="0 0 432 958">
  <defs>
    <linearGradient id="linear-gradient" x1="0.5" x2="0.5" y2="1" gradientUnits="objectBoundingBox">
      <stop offset="0" stop-color="#0f1e41" stop-opacity="0.698"/>
      <stop offset="1" stop-color="#131b2e" stop-opacity="0.698"/>
    </linearGradient>
  </defs>
  <g id="组_2616" data-name="组 2616" transform="translate(-3237 2340)">
    <g id="组_2615" data-name="组 2615">
      <g id="减去_171" data-name="减去 171" transform="translate(3237 -2340)" fill="url(#linear-gradient)">
        <path d="M 416.9996948242188 957.4998168945312 L 15.00041389465332 957.4998168945312 C 11.12723731994629 957.4998168945312 7.485825538635254 955.9915771484375 4.747002124786377 953.2531127929688 C 2.008414030075073 950.5146484375 0.5001786947250366 946.8734741210938 0.5001786947250366 943.0003051757812 L 0.5001786947250366 903.87890625 L 16.78759002685547 892.4087524414062 L 16.99970817565918 892.2593383789062 L 16.99970817565918 891.9999389648438 L 16.99982643127441 692.0001831054688 L 16.99982643127441 691.7407836914062 L 16.7877082824707 691.5913696289062 L 0.5000610947608948 680.12109375 L 0.5001786947250366 15.00029182434082 C 0.5001786947250366 11.12699794769287 2.008414030075073 7.485586166381836 4.747002124786377 4.746997833251953 C 7.485708236694336 2.00840950012207 11.12712001800537 0.5001742839813232 15.00041389465332 0.5001742839813232 L 96.02249908447266 0.5001742839813232 L 115.5912399291992 28.28782081604004 L 115.7406463623047 28.49993896484375 L 116.0000610351562 28.49993896484375 L 315.9998168945312 28.50005722045898 L 316.2592468261719 28.50005722045898 L 316.4086608886719 28.28793907165527 L 335.9775085449219 0.5000569820404053 L 416.9996948242188 0.5001742839813232 C 420.8731079101562 0.5001742839813232 424.5145263671875 2.00840950012207 427.2531127929688 4.746997833251953 C 429.9918212890625 7.485939025878906 431.5001831054688 11.12723350524902 431.5001831054688 15.00029182434082 L 431.5001831054688 97.52943420410156 L 417.2123107910156 107.5912322998047 L 417.0001831054688 107.7406463623047 L 417.0001831054688 108.0000534057617 L 417.0003051757812 307.9998168945312 L 417.0003051757812 308.2592468261719 L 417.21240234375 308.4086303710938 L 431.5000610351562 318.4704284667969 L 431.5001831054688 943.0003051757812 C 431.5001831054688 946.8732299804688 429.9918212890625 950.514404296875 427.2531127929688 953.2531127929688 C 424.5142822265625 955.9915771484375 420.8728942871094 957.4998168945312 416.9996948242188 957.4998168945312 Z" stroke="none"/>
        <path d="M 416.9996948242188 956.9998168945312 C 420.7393493652344 956.9998168945312 424.2552490234375 955.5435791015625 426.8995971679688 952.8994750976562 C 429.5438232421875 950.25537109375 431.0001831054688 946.7396850585938 431.0001831054688 943.0003051757812 L 431.0000610351562 318.7298889160156 L 416.5003051757812 308.5186462402344 L 416.5001831054688 107.4812316894531 L 431.0001831054688 97.26998901367188 L 431.0001831054688 15.00029182434082 C 431.0001831054688 11.26076221466064 429.5438232421875 7.744997978210449 426.8995971679688 5.100527286529541 C 424.2553405761719 2.456409454345703 420.7394714355469 1.000174283981323 416.9996948242188 1.000174283981323 L 336.2369384765625 1.000057339668274 L 316.5186462402344 29.00005722045898 L 115.4812393188477 28.99993896484375 L 115.1824111938477 28.57570457458496 L 95.76305389404297 1.000174283981323 L 15.00041389465332 1.000174283981323 C 11.26064968109131 1.000174283981323 7.744884490966797 2.456409454345703 5.100531578063965 5.100527286529541 C 2.456413984298706 7.744762420654297 1.000178694725037 11.26052761077881 1.000178694725037 15.00029182434082 L 1.00006115436554 679.8616333007812 L 17.49982643127441 691.4813232421875 L 17.49970817565918 892.5187377929688 L 1.000178694725037 904.1383666992188 L 1.000178694725037 943.0003051757812 C 1.000178694725037 946.7399291992188 2.456413984298706 950.255615234375 5.100531578063965 952.8994750976562 C 7.744884490966797 955.5435791015625 11.26076698303223 956.9998168945312 15.00041389465332 956.9998168945312 L 416.9996948242188 956.9998168945312 M 416.9996948242188 957.9998168945312 L 15.00041389465332 957.9998168945312 C 10.99359035491943 957.9998168945312 7.226649284362793 956.4395751953125 4.393472671508789 953.6066284179688 C 1.560413956642151 950.7738037109375 0.0001786822103895247 947.0070190429688 0.0001786822103895247 943.0003051757812 L 0.0001786822103895247 903.6194458007812 L 16.49970817565918 891.9999389648438 L 16.49982643127441 692.0001831054688 L 6.103515625e-05 680.3805541992188 L 0.0001786822103895247 15.00029182434082 C 0.0001786822103895247 10.99346828460693 1.560413956642151 7.226527214050293 4.393472671508789 4.393468379974365 C 7.226649284362793 1.560409545898438 10.99359035491943 0.0001742589665809646 15.00041389465332 0.0001742589665809646 L 96.28194427490234 0.0001742589665809646 L 116.0000610351562 27.99993896484375 L 315.9998168945312 28.00005722045898 L 335.7180480957031 5.661190152750351e-05 L 416.9996948242188 0.0001742589665809646 C 421.0066528320312 0.0001742589665809646 424.7735900878906 1.560409545898438 427.6066589355469 4.393468379974365 C 430.439697265625 7.226644992828369 432.0001831054688 10.99358558654785 432.0001831054688 15.00029182434082 L 432.0001831054688 97.78887939453125 L 417.5001831054688 108.0000534057617 L 417.5003051757812 307.9998168945312 L 432.0000610351562 318.2109985351562 L 432.0001831054688 943.0003051757812 C 432.0001831054688 947.0070190429688 430.439697265625 950.773681640625 427.6066589355469 953.6066284179688 C 424.7734680175781 956.4395751953125 421.0065307617188 957.9998168945312 416.9996948242188 957.9998168945312 Z" stroke="none" fill="#18acff"/>
      </g>
      <g id="交叉_8" data-name="交叉 8" transform="translate(7277 -3764)" fill="url(#linear-gradient)">
        <path d="M -3724.259521484375 1453.49951171875 L -3923.740478515625 1453.49951171875 L -3944.1630859375 1424.499755859375 L -3703.8369140625 1424.499755859375 L -3724.259521484375 1453.49951171875 Z" stroke="none"/>
        <path d="M -3724.518798828125 1452.99951171875 L -3704.800537109375 1424.999755859375 L -3943.199462890625 1424.999755859375 L -3923.481201171875 1452.99951171875 L -3724.518798828125 1452.99951171875 M -3724 1453.99951171875 L -3924 1453.99951171875 L -3945.126708984375 1423.999755859375 L -3702.873291015625 1423.999755859375 L -3724 1453.99951171875 Z" stroke="none" fill="#18acff"/>
      </g>
      <path id="减去_179" data-name="减去 179" d="M10.351,22.206h0A18.424,18.424,0,0,0,5,13h.089A14.652,14.652,0,0,0,10.5,14a14.832,14.832,0,0,0,5.057-.864A18.437,18.437,0,0,0,10.351,22.2Z" transform="translate(3375.504 -2336.557) rotate(90)" fill="#00a3ff"/>
      <path id="减去_173" data-name="减去 173" d="M10.351,22.206h0A18.424,18.424,0,0,0,5,13h.089A14.652,14.652,0,0,0,10.5,14a14.832,14.832,0,0,0,5.057-.864A18.437,18.437,0,0,0,10.351,22.2Z" transform="translate(3530.496 -2316) rotate(-90)" fill="#00a3ff"/>
      <path id="减去_177" data-name="减去 177" d="M10.351,22.206h0A18.424,18.424,0,0,0,5,13h.089A14.652,14.652,0,0,0,10.5,14a14.832,14.832,0,0,0,5.057-.864A18.437,18.437,0,0,0,10.351,22.2Z" transform="translate(3380.901 -2336.557) rotate(90)" fill="#00a3ff" opacity="0.2"/>
      <path id="减去_175" data-name="减去 175" d="M10.351,22.206h0A18.424,18.424,0,0,0,5,13h.089A14.652,14.652,0,0,0,10.5,14a14.832,14.832,0,0,0,5.057-.864A18.437,18.437,0,0,0,10.351,22.2Z" transform="translate(3525.099 -2316) rotate(-90)" fill="#00a3ff" opacity="0.2"/>
      <circle id="椭圆_478" data-name="椭圆 478" cx="4" cy="4" r="4" transform="translate(3254 -2330)" fill="#00a3ff"/>
      <circle id="椭圆_479" data-name="椭圆 479" cx="4" cy="4" r="4" transform="translate(3266 -2330)" fill="#00a3ff" opacity="0.5"/>
      <circle id="椭圆_480" data-name="椭圆 480" cx="4" cy="4" r="4" transform="translate(3278 -2330)" fill="#00a3ff" opacity="0.2"/>
      <circle id="椭圆_481" data-name="椭圆 481" cx="4" cy="4" r="4" transform="translate(3621 -2330)" fill="#00a3ff" opacity="0.2"/>
      <circle id="椭圆_482" data-name="椭圆 482" cx="4" cy="4" r="4" transform="translate(3633 -2330)" fill="#00a3ff" opacity="0.5"/>
      <circle id="椭圆_483" data-name="椭圆 483" cx="4" cy="4" r="4" transform="translate(3645 -2330)" fill="#00a3ff"/>
      <path id="路径_859" data-name="路径 859" d="M0,0H364.141l31.527-31.105V-577.816" transform="translate(3260.5 -1394.5)" fill="none" stroke="#18acff" stroke-linecap="round" stroke-width="1" stroke-dasharray="2 4"/>
      <path id="路径_858" data-name="路径 858" d="M0,0H364.141l31.527-31.105V-577.816" transform="translate(3260.5 -1394.5)" fill="none" stroke="#18acff" stroke-width="5" stroke-dasharray="0 3"/>
      <path id="路径_860" data-name="路径 860" d="M20.148,0V20.148H0Z" transform="translate(3635.852 -1414.148)" fill="#46a2f8" opacity="0.3"/>
      <path id="路径_861" data-name="路径 861" d="M12.668,0V12.668H0Z" transform="translate(3643.332 -1406.668)" fill="#46a2f8" opacity="0.7"/>
    </g>
  </g>
</svg>
