<svg xmlns="http://www.w3.org/2000/svg" xmlns:xlink="http://www.w3.org/1999/xlink" width="1385" height="958" viewBox="0 0 1385 958">
  <defs>
    <linearGradient id="linear-gradient" x1="0.5" x2="0.5" y2="1" gradientUnits="objectBoundingBox">
      <stop offset="0" stop-color="#0f1e41" stop-opacity="0.698"/>
      <stop offset="1" stop-color="#131b2e" stop-opacity="0.698"/>
    </linearGradient>
    <linearGradient id="linear-gradient-3" x1="0.507" y1="1" x2="0.506" gradientUnits="objectBoundingBox">
      <stop offset="0" stop-color="#2d4681" stop-opacity="0.698"/>
      <stop offset="1" stop-color="#11234e" stop-opacity="0"/>
    </linearGradient>
  </defs>
  <g id="组_2621" data-name="组 2621" transform="translate(-5944 2276)">
    <g id="减去_190" data-name="减去 190" transform="translate(9968 -3702)" fill="url(#linear-gradient)">
      <path d="M -2654.00048828125 2383.499267578125 L -4009.00048828125 2383.499267578125 C -4012.873046875 2383.499267578125 -4016.51416015625 2381.990966796875 -4019.252685546875 2379.252197265625 C -4021.99169921875 2376.51416015625 -4023.500244140625 2372.873291015625 -4023.500244140625 2369.000244140625 L -4023.500244140625 2259.287353515625 L -4005.21240234375 2246.4091796875 L -4005.000244140625 2246.260009765625 L -4005.000244140625 2246.00048828125 L -4005.000244140625 2046.000610351562 L -4005.000244140625 2045.7412109375 L -4005.21240234375 2045.591918945312 L -4023.500244140625 2032.713012695312 L -4023.500244140625 1441.000244140625 C -4023.500244140625 1437.127563476562 -4021.99169921875 1433.486083984375 -4019.252685546875 1430.747192382812 C -4016.513916015625 1428.008422851562 -4012.873046875 1426.500244140625 -4009.00048828125 1426.500244140625 L -3450.977294921875 1426.500244140625 L -3431.4091796875 1454.287353515625 L -3431.259765625 1454.499633789062 L -3431.00048828125 1454.499633789062 L -3230.99951171875 1454.499633789062 L -3230.739990234375 1454.499633789062 L -3230.5908203125 1454.287353515625 L -3211.022705078125 1426.500244140625 L -2654.00048828125 1426.500244140625 C -2650.126953125 1426.500244140625 -2646.485595703125 1428.008422851562 -2643.7470703125 1430.747192382812 C -2641.008544921875 1433.48681640625 -2639.500244140625 1437.128295898438 -2639.500244140625 1441.000244140625 L -2639.500244140625 1668.361328125 L -2658.28857421875 1681.591918945312 L -2658.500732421875 1681.7412109375 L -2658.500732421875 1682.000610351562 L -2658.500732421875 1881.999389648438 L -2658.500732421875 1882.2587890625 L -2658.28857421875 1882.408081054688 L -2639.50048828125 1895.6396484375 L -2639.500244140625 2369.000244140625 C -2639.500244140625 2372.872314453125 -2641.008544921875 2376.51318359375 -2643.7470703125 2379.25244140625 C -2646.485595703125 2381.990966796875 -2650.126953125 2383.499267578125 -2654.00048828125 2383.499267578125 Z" stroke="none"/>
      <path d="M -2654.00048828125 2382.999267578125 C -2650.260498046875 2382.999267578125 -2646.744873046875 2381.54296875 -2644.1005859375 2378.89892578125 C -2641.45654296875 2376.254150390625 -2640.000244140625 2372.73876953125 -2640.000244140625 2369.000244140625 L -2640.00048828125 1895.899169921875 L -2659.000732421875 1882.518310546875 L -2659.000732421875 1681.481811523438 L -2658.57666015625 1681.182983398438 L -2640.000244140625 1668.101684570312 L -2640.000244140625 1441.000244140625 C -2640.000244140625 1437.26171875 -2641.45654296875 1433.745971679688 -2644.1005859375 1431.100708007812 C -2646.744873046875 1428.45654296875 -2650.260498046875 1427.000244140625 -2654.00048828125 1427.000244140625 L -3210.76318359375 1427.000244140625 L -3230.480712890625 1454.999633789062 L -3431.519287109375 1454.999633789062 L -3431.818115234375 1454.575439453125 L -3451.237060546875 1427.000244140625 L -4009.00048828125 1427.000244140625 C -4012.7392578125 1427.000244140625 -4016.2548828125 1428.45654296875 -4018.899169921875 1431.100708007812 C -4021.543701171875 1433.745361328125 -4023.000244140625 1437.260986328125 -4023.000244140625 1441.000244140625 L -4023.000244140625 2032.453369140625 L -4004.500244140625 2045.481811523438 L -4004.500244140625 2246.519287109375 L -4004.92431640625 2246.818115234375 L -4023.000244140625 2259.547119140625 L -4023.000244140625 2369.000244140625 C -4023.000244140625 2372.73974609375 -4021.5439453125 2376.255126953125 -4018.899169921875 2378.89892578125 C -4016.2548828125 2381.54296875 -4012.739501953125 2382.999267578125 -4009.00048828125 2382.999267578125 L -2654.00048828125 2382.999267578125 M -2654.00048828125 2383.999267578125 L -4009.00048828125 2383.999267578125 C -4013.006591796875 2383.999267578125 -4016.773193359375 2382.43896484375 -4019.606201171875 2379.60595703125 C -4022.439697265625 2376.7734375 -4024.000244140625 2373.007080078125 -4024.000244140625 2369.000244140625 L -4024.000244140625 2259.028076171875 L -4005.500244140625 2246.00048828125 L -4005.500244140625 2046.000610351562 L -4024.000244140625 2032.972290039062 L -4024.000244140625 1441.000244140625 C -4024.000244140625 1436.993896484375 -4022.439697265625 1433.22705078125 -4019.606201171875 1430.3935546875 C -4016.77294921875 1427.560424804688 -4013.006591796875 1426.000244140625 -4009.00048828125 1426.000244140625 L -3450.718017578125 1426.000244140625 L -3431.00048828125 1453.999633789062 L -3230.99951171875 1453.999633789062 L -3211.281982421875 1426.000244140625 L -2654.00048828125 1426.000244140625 C -2649.99365234375 1426.000244140625 -2646.2265625 1427.560424804688 -2643.3935546875 1430.3935546875 C -2640.560791015625 1433.2275390625 -2639.000244140625 1436.994262695312 -2639.000244140625 1441.000244140625 L -2639.000244140625 1668.62060546875 L -2658.000732421875 1682.000610351562 L -2658.000732421875 1881.999389648438 L -2639.00048828125 1895.380249023438 L -2639.000244140625 2369.000244140625 C -2639.000244140625 2373.00634765625 -2640.560791015625 2376.772705078125 -2643.3935546875 2379.60595703125 C -2646.2265625 2382.43896484375 -2649.993408203125 2383.999267578125 -2654.00048828125 2383.999267578125 Z" stroke="none" fill="#4eabf8"/>
    </g>
    <g id="交叉_10" data-name="交叉 10" transform="translate(10460.5 -3700)" fill="url(#linear-gradient)">
      <path d="M -3724.259521484375 1453.49951171875 L -3923.740478515625 1453.49951171875 L -3944.1630859375 1424.499755859375 L -3703.8369140625 1424.499755859375 L -3724.259521484375 1453.49951171875 Z" stroke="none"/>
      <path d="M -3724.518798828125 1452.99951171875 L -3704.800537109375 1424.999755859375 L -3943.199462890625 1424.999755859375 L -3923.481201171875 1452.99951171875 L -3724.518798828125 1452.99951171875 M -3724 1453.99951171875 L -3924 1453.99951171875 L -3945.126708984375 1423.999755859375 L -3702.873291015625 1423.999755859375 L -3724 1453.99951171875 Z" stroke="none" fill="#18acff"/>
    </g>
    <path id="减去_192" data-name="减去 192" d="M10.351,22.206h0A18.424,18.424,0,0,0,5,13h.089A14.652,14.652,0,0,0,10.5,14a14.832,14.832,0,0,0,5.057-.864A18.437,18.437,0,0,0,10.351,22.2Z" transform="translate(6559.004 -2272.557) rotate(90)" fill="#00a3ff"/>
    <path id="减去_198" data-name="减去 198" d="M10.351,22.206h0A18.424,18.424,0,0,0,5,13h.089A14.652,14.652,0,0,0,10.5,14a14.832,14.832,0,0,0,5.057-.864A18.437,18.437,0,0,0,10.351,22.2Z" transform="translate(6713.996 -2252) rotate(-90)" fill="#00a3ff"/>
    <path id="减去_194" data-name="减去 194" d="M10.351,22.206h0A18.424,18.424,0,0,0,5,13h.089A14.652,14.652,0,0,0,10.5,14a14.832,14.832,0,0,0,5.057-.864A18.437,18.437,0,0,0,10.351,22.2Z" transform="translate(6564.4 -2272.557) rotate(90)" fill="#00a3ff" opacity="0.2"/>
    <path id="减去_196" data-name="减去 196" d="M10.351,22.206h0A18.424,18.424,0,0,0,5,13h.089A14.652,14.652,0,0,0,10.5,14a14.832,14.832,0,0,0,5.057-.864A18.437,18.437,0,0,0,10.351,22.2Z" transform="translate(6708.599 -2252) rotate(-90)" fill="#00a3ff" opacity="0.2"/>
    <circle id="椭圆_529" data-name="椭圆 529" cx="4" cy="4" r="4" transform="translate(5961 -2266)" fill="#00a3ff"/>
    <circle id="椭圆_530" data-name="椭圆 530" cx="4" cy="4" r="4" transform="translate(5973 -2266)" fill="#00a3ff" opacity="0.5"/>
    <circle id="椭圆_531" data-name="椭圆 531" cx="4" cy="4" r="4" transform="translate(5985 -2266)" fill="#00a3ff" opacity="0.2"/>
    <circle id="椭圆_514" data-name="椭圆 514" cx="4" cy="4" r="4" transform="translate(7281 -2266)" fill="#00a3ff" opacity="0.2"/>
    <circle id="椭圆_515" data-name="椭圆 515" cx="4" cy="4" r="4" transform="translate(7293 -2266)" fill="#00a3ff" opacity="0.5"/>
    <circle id="椭圆_516" data-name="椭圆 516" cx="4" cy="4" r="4" transform="translate(7305 -2266)" fill="#00a3ff"/>
    <path id="路径_866" data-name="路径 866" d="M-957.416.06,364.141,0l31.527-31.105.065-434.115" transform="translate(6921.666 -1330.5)" fill="none" stroke="#18acff" stroke-width="5" stroke-dasharray="0 3"/>
    <path id="路径_867" data-name="路径 867" d="M20.148,0V20.148H0Z" transform="translate(7297.018 -1350.148)" fill="#46a2f8" opacity="0.3"/>
    <path id="路径_868" data-name="路径 868" d="M12.668,0V12.668H0Z" transform="translate(7304.498 -1342.668)" fill="#46a2f8" opacity="0.7"/>
    <path id="路径_869" data-name="路径 869" d="M-957.684,0H364.141l31.527-31.105-.009-434.442" transform="translate(6921.666 -1330.5)" fill="none" stroke="#18acff" stroke-width="1" stroke-dasharray="2 4"/>
    <path id="联合_10" data-name="联合 10" d="M1344,108V98h10v10Zm-14,0V98h10v10Zm-14,0V98h10v10Zm-14,0V98h10v10Zm-14,0V98h10v10Zm-14,0V98h10v10Zm-14,0V98h10v10Zm-14,0V98h10v10Zm-14,0V98h10v10Zm-14,0V98h10v10Zm-14,0V98h10v10Zm-14,0V98h10v10Zm-14,0V98h10v10Zm-14,0V98h10v10Zm-14,0V98h10v10Zm-14,0V98h10v10Zm-14,0V98h10v10Zm-14,0V98h10v10Zm-14,0V98h10v10Zm-14,0V98h10v10Zm-14,0V98h10v10Zm-14,0V98h10v10Zm-14,0V98h10v10Zm-14,0V98h10v10Zm-14,0V98h10v10Zm-14,0V98h10v10Zm-14,0V98h10v10Zm-14,0V98h10v10Zm-14,0V98h10v10Zm-14,0V98h10v10Zm-14,0V98h10v10Zm-14,0V98h10v10Zm-14,0V98h10v10Zm-14,0V98h10v10Zm-14,0V98h10v10Zm-14,0V98h10v10Zm-14,0V98h10v10Zm-14,0V98h10v10Zm-14,0V98h10v10Zm-14,0V98h10v10Zm-14,0V98h10v10Zm-14,0V98h10v10Zm-14,0V98h10v10Zm-14,0V98h10v10Zm-14,0V98h10v10Zm-14,0V98h10v10Zm-14,0V98h10v10Zm-14,0V98h10v10Zm-14,0V98h10v10Zm-14,0V98h10v10Zm-14,0V98h10v10Zm-14,0V98h10v10Zm-14,0V98h10v10Zm-14,0V98h10v10Zm-14,0V98h10v10Zm-14,0V98h10v10Zm-14,0V98h10v10Zm-14,0V98h10v10Zm-14,0V98h10v10Zm-14,0V98h10v10Zm-14,0V98h10v10Zm-14,0V98h10v10Zm-14,0V98h10v10Zm-14,0V98h10v10Zm-14,0V98h10v10Zm-14,0V98h10v10Zm-14,0V98h10v10Zm-14,0V98h10v10Zm-14,0V98h10v10Zm-14,0V98h10v10Zm-14,0V98h10v10Zm-28,0V98h10v10Zm-14,0V98h10v10Zm-14,0V98h10v10Zm-14,0V98h10v10Zm-14,0V98h10v10Zm-14,0V98h10v10Zm-14,0V98h10v10Zm-14,0V98h10v10Zm-14,0V98h10v10Zm-14,0V98h10v10Zm-14,0V98h10v10Zm-14,0V98h10v10Zm-14,0V98h10v10Zm-14,0V98h10v10Zm-14,0V98h10v10Zm-14,0V98h10v10Zm-14,0V98h10v10Zm-14,0V98h10v10Zm-14,0V98H94v10Zm-14,0V98H80v10Zm-14,0V98H66v10Zm-14,0V98H52v10Zm-14,0V98H38v10Zm-14,0V98H24v10ZM0,108V98H10v10ZM1344,94V84h10V94Zm-14,0V84h10V94Zm-14,0V84h10V94Zm-14,0V84h10V94Zm-14,0V84h10V94Zm-14,0V84h10V94Zm-14,0V84h10V94Zm-14,0V84h10V94Zm-14,0V84h10V94Zm-14,0V84h10V94Zm-14,0V84h10V94Zm-14,0V84h10V94Zm-14,0V84h10V94Zm-14,0V84h10V94Zm-14,0V84h10V94Zm-14,0V84h10V94Zm-14,0V84h10V94Zm-14,0V84h10V94Zm-14,0V84h10V94Zm-14,0V84h10V94Zm-42,0V84h10V94Zm-14,0V84h10V94Zm-14,0V84h10V94Zm-14,0V84h10V94Zm-14,0V84h10V94Zm-14,0V84h10V94Zm-14,0V84h10V94Zm-14,0V84h10V94Zm-14,0V84h10V94Zm-14,0V84h10V94Zm-14,0V84h10V94Zm-14,0V84h10V94Zm-14,0V84h10V94Zm-14,0V84h10V94Zm-14,0V84h10V94Zm-14,0V84h10V94Zm-14,0V84h10V94Zm-14,0V84h10V94Zm-14,0V84h10V94Zm-14,0V84h10V94Zm-14,0V84h10V94Zm-14,0V84h10V94Zm-14,0V84h10V94Zm-14,0V84h10V94Zm-14,0V84h10V94Zm-14,0V84h10V94Zm-14,0V84h10V94Zm-14,0V84h10V94Zm-14,0V84h10V94Zm-14,0V84h10V94Zm-14,0V84h10V94Zm-14,0V84h10V94Zm-14,0V84h10V94Zm-28,0V84h10V94Zm-14,0V84h10V94Zm-14,0V84h10V94Zm-14,0V84h10V94Zm-14,0V84h10V94Zm-14,0V84h10V94Zm-28,0V84h10V94Zm-14,0V84h10V94Zm-14,0V84h10V94Zm-14,0V84h10V94Zm-14,0V84h10V94Zm-14,0V84h10V94Zm-14,0V84h10V94Zm-14,0V84h10V94Zm-14,0V84h10V94Zm-14,0V84h10V94Zm-14,0V84h10V94Zm-14,0V84h10V94Zm-14,0V84h10V94Zm-14,0V84h10V94Zm-14,0V84h10V94Zm-14,0V84h10V94Zm-14,0V84h10V94Zm-14,0V84h10V94Zm-28,0V84h10V94Zm-14,0V84h10V94Zm-14,0V84h10V94Zm-14,0V84h10V94Zm-14,0V84h10V94Zm-14,0V84h10V94Zm-14,0V84h10V94ZM98,94V84h10V94ZM84,94V84H94V94ZM70,94V84H80V94ZM56,94V84H66V94ZM42,94V84H52V94ZM28,94V84H38V94ZM14,94V84H24V94ZM0,94V84H10V94ZM1344,80V70h10V80Zm-14,0V70h10V80Zm-14,0V70h10V80Zm-14,0V70h10V80Zm-28,0V70h10V80Zm-14,0V70h10V80Zm-14,0V70h10V80Zm-14,0V70h10V80Zm-14,0V70h10V80Zm-14,0V70h10V80Zm-14,0V70h10V80Zm-14,0V70h10V80Zm-14,0V70h10V80Zm-14,0V70h10V80Zm-14,0V70h10V80Zm-14,0V70h10V80Zm-28,0V70h10V80Zm-14,0V70h10V80Zm-42,0V70h10V80Zm-14,0V70h10V80Zm-14,0V70h10V80Zm-14,0V70h10V80Zm-14,0V70h10V80Zm-14,0V70h10V80Zm-14,0V70h10V80Zm-14,0V70h10V80Zm-56,0V70h10V80Zm-14,0V70h10V80Zm-14,0V70h10V80Zm-14,0V70h10V80Zm-14,0V70h10V80Zm-14,0V70h10V80Zm-14,0V70h10V80Zm-14,0V70h10V80Zm-14,0V70h10V80Zm-28,0V70h10V80Zm-14,0V70h10V80Zm-14,0V70h10V80Zm-14,0V70h10V80Zm-14,0V70h10V80Zm-14,0V70h10V80Zm-14,0V70h10V80Zm-14,0V70h10V80Zm-14,0V70h10V80Zm-14,0V70h10V80Zm-14,0V70h10V80Zm-14,0V70h10V80Zm-28,0V70h10V80Zm-14,0V70h10V80Zm-14,0V70h10V80Zm-14,0V70h10V80Zm-14,0V70h10V80Zm-14,0V70h10V80Zm-14,0V70h10V80Zm-14,0V70h10V80Zm-14,0V70h10V80Zm-14,0V70h10V80Zm-14,0V70h10V80Zm-28,0V70h10V80Zm-14,0V70h10V80Zm-14,0V70h10V80Zm-14,0V70h10V80Zm-14,0V70h10V80Zm-14,0V70h10V80Zm-14,0V70h10V80Zm-14,0V70h10V80Zm-14,0V70h10V80Zm-14,0V70h10V80Zm-14,0V70h10V80Zm-14,0V70h10V80Zm-14,0V70h10V80Zm-28,0V70h10V80Zm-14,0V70h10V80Zm-14,0V70h10V80Zm-14,0V70h10V80Zm-14,0V70h10V80Zm-14,0V70h10V80Zm-14,0V70h10V80ZM84,80V70H94V80ZM70,80V70H80V80ZM56,80V70H66V80ZM42,80V70H52V80ZM0,80V70H10V80ZM1344,66V56h10V66Zm-42,0V56h10V66Zm-14,0V56h10V66Zm-14,0V56h10V66Zm-28,0V56h10V66Zm-14,0V56h10V66Zm-14,0V56h10V66Zm-14,0V56h10V66Zm-14,0V56h10V66Zm-14,0V56h10V66Zm-14,0V56h10V66Zm-14,0V56h10V66Zm-14,0V56h10V66Zm-14,0V56h10V66Zm-28,0V56h10V66Zm-14,0V56h10V66Zm-42,0V56h10V66Zm-28,0V56h10V66Zm-42,0V56h10V66Zm-14,0V56h10V66Zm-14,0V56h10V66Zm-56,0V56h10V66Zm-14,0V56h10V66Zm-14,0V56h10V66Zm-14,0V56h10V66Zm-14,0V56h10V66Zm-42,0V56h10V66Zm-14,0V56h10V66Zm-14,0V56h10V66Zm-14,0V56h10V66Zm-14,0V56h10V66Zm-14,0V56h10V66Zm-14,0V56h10V66Zm-14,0V56h10V66Zm-14,0V56h10V66Zm-14,0V56h10V66Zm-28,0V56h10V66Zm-14,0V56h10V66Zm-14,0V56h10V66Zm-14,0V56h10V66Zm-14,0V56h10V66Zm-28,0V56h10V66Zm-14,0V56h10V66Zm-14,0V56h10V66Zm-14,0V56h10V66Zm-14,0V56h10V66Zm-14,0V56h10V66Zm-14,0V56h10V66Zm-14,0V56h10V66Zm-14,0V56h10V66Zm-14,0V56h10V66Zm-14,0V56h10V66Zm-14,0V56h10V66Zm-14,0V56h10V66Zm-14,0V56h10V66Zm-14,0V56h10V66Zm-14,0V56h10V66Zm-14,0V56h10V66Zm-14,0V56h10V66Zm-14,0V56h10V66Zm-14,0V56h10V66Zm-14,0V56h10V66Zm-28,0V56h10V66Zm-14,0V56h10V66Zm-28,0V56h10V66Zm-14,0V56h10V66Zm-14,0V56h10V66Zm-14,0V56h10V66Zm-14,0V56h10V66Zm-14,0V56h10V66Zm-14,0V56h10V66ZM84,66V56H94V66ZM70,66V56H80V66ZM56,66V56H66V66ZM42,66V56H52V66ZM0,66V56H10V66ZM1344,52V42h10V52Zm-42,0V42h10V52Zm-14,0V42h10V52Zm-14,0V42h10V52Zm-14,0V42h10V52Zm-14,0V42h10V52Zm-14,0V42h10V52Zm-14,0V42h10V52Zm-14,0V42h10V52Zm-28,0V42h10V52Zm-14,0V42h10V52Zm-28,0V42h10V52Zm-14,0V42h10V52Zm-28,0V42h10V52Zm-14,0V42h10V52Zm-42,0V42h10V52Zm-14,0V42h10V52Zm-14,0V42h10V52Zm-42,0V42h10V52Zm-14,0V42h10V52Zm-14,0V42h10V52Zm-56,0V42h10V52Zm-28,0V42h10V52Zm-14,0V42h10V52Zm-14,0V42h10V52Zm-42,0V42h10V52Zm-14,0V42h10V52Zm-14,0V42h10V52Zm-28,0V42h10V52Zm-14,0V42h10V52Zm-28,0V42h10V52Zm-14,0V42h10V52Zm-14,0V42h10V52Zm-14,0V42h10V52Zm-14,0V42h10V52Zm-14,0V42h10V52Zm-28,0V42h10V52Zm-14,0V42h10V52Zm-28,0V42h10V52Zm-14,0V42h10V52ZM336,52V42h10V52Zm-14,0V42h10V52Zm-14,0V42h10V52Zm-14,0V42h10V52Zm-14,0V42h10V52Zm-14,0V42h10V52Zm-28,0V42h10V52Zm-14,0V42h10V52Zm-28,0V42h10V52Zm-14,0V42h10V52Zm-14,0V42h10V52Zm-14,0V42h10V52Zm-14,0V42h10V52Zm-14,0V42h10V52Zm-14,0V42h10V52ZM84,52V42H94V52ZM70,52V42H80V52ZM56,52V42H66V52ZM42,52V42H52V52ZM0,52V42H10V52ZM1344,38V28h10V38Zm-42,0V28h10V38Zm-28,0V28h10V38Zm-28,0V28h10V38Zm-28,0V28h10V38Zm-14,0V28h10V38Zm-28,0V28h10V38Zm-14,0V28h10V38Zm-14,0V28h10V38Zm-14,0V28h10V38Zm-14,0V28h10V38Zm-28,0V28h10V38Zm-14,0V28h10V38Zm-42,0V28h10V38Zm-28,0V28h10V38Zm-42,0V28h10V38Zm-14,0V28h10V38Zm-14,0V28h10V38Zm-56,0V28h10V38Zm-14,0V28h10V38Zm-14,0V28h10V38Zm-14,0V28h10V38Zm-14,0V28h10V38Zm-42,0V28h10V38Zm-14,0V28h10V38Zm-14,0V28h10V38Zm-28,0V28h10V38Zm-14,0V28h10V38Zm-14,0V28h10V38Zm-14,0V28h10V38Zm-14,0V28h10V38Zm-14,0V28h10V38Zm-56,0V28h10V38Zm-14,0V28h10V38Zm-14,0V28h10V38Zm-14,0V28h10V38Zm-14,0V28h10V38Zm-14,0V28h10V38ZM336,38V28h10V38Zm-42,0V28h10V38Zm-14,0V28h10V38Zm-14,0V28h10V38Zm-28,0V28h10V38Zm-14,0V28h10V38Zm-28,0V28h10V38Zm-14,0V28h10V38Zm-70,0V28h10V38ZM84,38V28H94V38ZM70,38V28H80V38ZM56,38V28H66V38ZM42,38V28H52V38ZM0,38V28H10V38ZM1344,24V14h10V24Zm-42,0V14h10V24Zm-28,0V14h10V24Zm-28,0V14h10V24Zm-14,0V14h10V24Zm-14,0V14h10V24Zm-14,0V14h10V24Zm-28,0V14h10V24Zm-14,0V14h10V24Zm-14,0V14h10V24Zm-14,0V14h10V24Zm-14,0V14h10V24Zm-28,0V14h10V24Zm-14,0V14h10V24Zm-42,0V14h10V24Zm-14,0V14h10V24Zm-14,0V14h10V24Zm-14,0V14h10V24Zm-14,0V14h10V24Zm-14,0V14h10V24Zm-28,0V14h10V24Zm-56,0V14h10V24Zm-28,0V14h10V24Zm-14,0V14h10V24Zm-14,0V14h10V24Zm-42,0V14h10V24Zm-14,0V14h10V24Zm-14,0V14h10V24Zm-28,0V14h10V24Zm-14,0V14h10V24Zm-14,0V14h10V24Zm-28,0V14h10V24Zm-14,0V14h10V24Zm-14,0V14h10V24Zm-14,0V14h10V24Zm-14,0V14h10V24Zm-14,0V14h10V24Zm-28,0V14h10V24Zm-14,0V14h10V24Zm-14,0V14h10V24Zm-14,0V14h10V24ZM336,24V14h10V24Zm-14,0V14h10V24Zm-14,0V14h10V24Zm-28,0V14h10V24Zm-14,0V14h10V24Zm-28,0V14h10V24Zm-14,0V14h10V24Zm-28,0V14h10V24Zm-14,0V14h10V24Zm-70,0V14h10V24ZM84,24V14H94V24ZM70,24V14H80V24ZM56,24V14H66V24ZM42,24V14H52V24ZM0,24V14H10V24ZM1344,10V0h10V10Zm-42,0V0h10V10Zm-14,0V0h10V10Zm-14,0V0h10V10Zm-42,0V0h10V10Zm-14,0V0h10V10Zm-14,0V0h10V10Zm-28,0V0h10V10Zm-14,0V0h10V10Zm-28,0V0h10V10Zm-14,0V0h10V10Zm-28,0V0h10V10Zm-14,0V0h10V10Zm-42,0V0h10V10Zm-14,0V0h10V10Zm-14,0V0h10V10Zm-14,0V0h10V10Zm-14,0V0h10V10Zm-14,0V0h10V10Zm-14,0V0h10V10Zm-14,0V0h10V10Zm-56,0V0h10V10Zm-14,0V0h10V10Zm-14,0V0h10V10Zm-14,0V0h10V10Zm-56,0V0h10V10Zm-14,0V0h10V10Zm-14,0V0h10V10Zm-14,0V0h10V10Zm-14,0V0h10V10Zm-14,0V0h10V10Zm-14,0V0h10V10Zm-14,0V0h10V10Zm-28,0V0h10V10Zm-14,0V0h10V10Zm-14,0V0h10V10Zm-14,0V0h10V10Zm-14,0V0h10V10Zm-14,0V0h10V10Zm-14,0V0h10V10Zm-14,0V0h10V10Zm-14,0V0h10V10Zm-14,0V0h10V10ZM336,10V0h10V10Zm-14,0V0h10V10Zm-14,0V0h10V10Zm-28,0V0h10V10Zm-14,0V0h10V10Zm-28,0V0h10V10Zm-14,0V0h10V10Zm-28,0V0h10V10Zm-14,0V0h10V10Zm-70,0V0h10V10ZM84,10V0H94V10ZM70,10V0H80V10ZM56,10V0H66V10ZM42,10V0H52V10ZM0,10V0H10V10Z" transform="translate(5954 -1426)" opacity="0.3" fill="url(#linear-gradient-3)"/>
  </g>
</svg>
