<?xml version="1.0" standalone="no"?><!DOCTYPE svg PUBLIC "-//W3C//DTD SVG 1.1//EN" "http://www.w3.org/Graphics/SVG/1.1/DTD/svg11.dtd"><svg t="1639702973220" class="icon" viewBox="0 0 1024 1024" version="1.1" xmlns="http://www.w3.org/2000/svg" p-id="32248" xmlns:xlink="http://www.w3.org/1999/xlink" width="128" height="128"><defs><style type="text/css"></style></defs><path d="M120 704h784a56 56 0 0 0 0-112h-4.448c-21.952-152.992-131.888-277.36-277.168-319.968 0.768-5.28 1.616-10.544 1.616-16.032a112 112 0 0 0-224 0c0 5.488 0.848 10.752 1.6 16.032C256.32 314.64 146.4 439.008 124.464 592H120a56 56 0 0 0 0 112zM512 200a56 56 0 0 1 56 56c0 1.536-0.752 2.816-0.88 4.32C549.072 257.76 530.752 256 512 256c-18.768 0-37.072 1.76-55.136 4.32-0.112-1.504-0.864-2.784-0.864-4.32a56 56 0 0 1 56-56zM275.84 500.032c36.24-58.176 92.624-102.32 160-121.44 1.392-0.528 2.832-0.928 4.32-1.216l0.32-0.096v0.032a28.496 28.496 0 0 1 33.824 27.904c0.016 13.968-10.112 25.552-23.472 27.952l0.032 0.16a222.96 222.96 0 0 0-126.24 93.68 28 28 0 1 1-48.784-26.976zM904 760h-784a56 56 0 1 0 0 112h784a56 56 0 1 0 0-112z" fill="#FF440E" p-id="32249"></path></svg>