<?xml version="1.0" standalone="no"?><!DOCTYPE svg PUBLIC "-//W3C//DTD SVG 1.1//EN" "http://www.w3.org/Graphics/SVG/1.1/DTD/svg11.dtd"><svg t="1639702927273" class="icon" viewBox="0 0 1227 1024" version="1.1" xmlns="http://www.w3.org/2000/svg" p-id="30332" xmlns:xlink="http://www.w3.org/1999/xlink" width="153.375" height="128"><defs><style type="text/css"></style></defs><path d="M1107.226085 0H120.297291A120.420043 120.420043 0 0 0 0 120.297291v783.405418a120.420043 120.420043 0 0 0 120.297291 120.297291h986.928794a120.420043 120.420043 0 0 0 120.297291-120.297291V120.297291A120.420043 120.420043 0 0 0 1107.226085 0z m27.742028 903.702709a28.110285 28.110285 0 0 1-27.742028 27.742028H351.624071v-117.167106a46.277631 46.277631 0 0 0-92.555263 0v117.167106H120.297291a28.110285 28.110285 0 0 1-27.742028-27.742028V120.297291a28.110285 28.110285 0 0 1 27.742028-27.742028h138.771517v129.503716a46.277631 46.277631 0 1 0 92.555263 0v-129.503716H1107.226085a28.110285 28.110285 0 0 1 27.742028 27.742028z" p-id="30333"></path><path d="M305.34644 373.228482a46.277631 46.277631 0 0 0-46.277632 46.216255v197.447135a46.277631 46.277631 0 0 0 92.555263 0V419.444737a46.277631 46.277631 0 0 0-46.277631-46.216255zM916.039319 595.287461h-126.496284V515.068808h123.3661a46.277631 46.277631 0 1 0 0-92.493886h-123.734357a48.241669 48.241669 0 0 0 6.137617-5.094222l152.642532-152.642532a46.277631 46.277631 0 1 0-65.426996-65.426996l-139.201151 139.201151-145.400144-145.400144a46.277631 46.277631 0 0 0-65.426996 65.426996l152.642532 152.703908a46.339007 46.339007 0 0 0 18.412851 11.231839H573.68305a46.277631 46.277631 0 1 0 0 92.493886h123.366099v80.218653H576.935987a46.277631 46.277631 0 1 0 0 92.493886h120.29729v120.297291a46.277631 46.277631 0 1 0 92.493887 0v-120.297291h126.496284a46.277631 46.277631 0 0 0 0-92.493886z m-184.128506-172.712539l2.700551-0.920642 1.227524 0.920642z" p-id="30334"></path></svg>