<?xml version="1.0" encoding="utf-8"?>
<!-- Generator: Adobe Illustrator 16.0.0, SVG Export Plug-In . SVG Version: 6.00 Build 0)  -->
<!DOCTYPE svg PUBLIC "-//W3C//DTD SVG 1.1//EN" "http://www.w3.org/Graphics/SVG/1.1/DTD/svg11.dtd">
<svg version="1.1" id="图层_1" xmlns="http://www.w3.org/2000/svg" xmlns:xlink="http://www.w3.org/1999/xlink" x="0px" y="0px"
	 width="72.95px" height="81.057px" viewBox="21.887 13.275 72.95 81.057" enable-background="new 21.887 13.275 72.95 81.057"
	 xml:space="preserve">
<path fill="#00A29A" d="M48.907,13.275c1.543,0,3.088,0,4.632,0c0,0.257,0,0.515,0,0.772c2.581,0.543,2.355,2.144,3.86,3.474
	c0.128,1.029,0.256,2.059,0.386,3.087c-0.129,0-0.258,0-0.386,0c0,0.644,0,1.287,0,1.931c-0.654,1.624-1.988,1.24-2.316,3.859
	c0.386,0.128,0.772,0.257,1.158,0.386c0,0.129,0,0.257,0,0.386c0.257,0,0.515,0,0.772,0c0.387,0.515,0.772,1.029,1.158,1.544
	c1.159-0.129,2.316-0.257,3.474-0.386c1.69,0.493,3.426,1.285,4.246,2.702c1.443,1.45,0.778,10.395,0.772,13.509
	c-0.128,1.416-0.257,2.831-0.386,4.246c-0.129,0-0.258,0-0.387,0c-0.643,0.772-1.287,1.544-1.93,2.316
	c-0.386,0.127-0.772,0.256-1.158,0.385c0,0.516,0,1.029,0,1.545c0.128,0,0.257,0,0.386,0c0,0.643,0,1.287,0,1.93
	c0.781,2.281,1.176,3.583,1.158,6.947c2.031,1.273,2.002,4.064,5.018,4.246c0.36-0.565,1.74-1.598,2.316-1.93
	c0.257,0,0.514,0,0.772,0c0.128-0.258,0.258-0.516,0.386-0.771c1.006-0.635,4.318-2.506,6.176-1.93c0,0.127,0,0.256,0,0.385
	c0.644,0.13,1.287,0.258,1.93,0.387c0.262,0.488,0.604,0.523,0.772,0.771c0,0.258,0,0.515,0,0.771
	c0.386,0.258,0.771,0.516,1.157,0.771c0,0.258,0,0.515,0,0.771c0.387,0.258,0.771,0.516,1.158,0.771c0,0.258,0,0.515,0,0.771
	c0.515,0.387,1.029,0.771,1.544,1.157c0,0.258,0,0.515,0,0.772c0.386,0.256,0.771,0.515,1.157,0.771
	c0.129,0.385,0.259,0.771,0.387,1.157c0.257,0.129,0.515,0.258,0.771,0.387c0,0.257,0,0.515,0,0.771
	c0.258,0.129,0.516,0.259,0.771,0.387c0,0.258,0,0.515,0,0.771c0.386,0.258,0.771,0.516,1.158,0.771c0,0.258,0,0.515,0,0.771
	c0.386,0.258,0.771,0.515,1.158,0.771c0,0.258,0,0.516,0,0.771c0.386,0.258,0.771,0.515,1.156,0.771c0,0.257,0,0.516,0,0.771
	c0.258,0.129,0.516,0.258,0.772,0.387c0.128,0.386,0.257,0.771,0.386,1.158c0.129,0,0.257,0,0.387,0
	c0.129,0.386,0.258,0.771,0.385,1.156c0.259,0,0.516,0,0.772,0c0,1.287,0,2.573,0,3.86c-0.258,0-0.515,0-0.772,0
	c-0.916,1.547-5.155,3.798-6.946,4.632c0.222,0.775-0.048,0.334,0.387,0.771c0.647,0.758,0.972,0.343,1.543,0.771
	c0.286,0.213,0.298,0.784,0.772,1.157c-0.271,1.304-0.838,1.487-1.158,2.702c-0.9,0-1.803,0-2.702,0
	c-0.376-1.533-0.758-1.486-0.771-3.859c-1.326-0.791-1.123-1.18-1.931-2.316c-0.387-0.256-0.772-0.515-1.157-0.771
	c0-0.258,0-0.517,0-0.772c-0.387-0.258-0.771-0.515-1.158-0.771c0-0.257,0-0.514,0-0.771c-0.516-0.386-1.029-0.771-1.545-1.158
	c-0.127-0.385-0.258-0.771-0.385-1.156c-0.259-0.129-0.516-0.258-0.772-0.387c0-0.258,0-0.514,0-0.771
	c-0.515-0.386-1.029-0.771-1.544-1.158c-0.129-0.386-0.258-0.771-0.387-1.156c-0.256-0.129-0.514-0.258-0.771-0.387
	c0-0.259,0-0.515,0-0.771c-0.386-0.258-0.772-0.516-1.158-0.771c0-0.258,0-0.516,0-0.771c-0.387-0.258-0.772-0.516-1.159-0.772
	c0-0.257,0-0.515,0-0.771c-0.386-0.258-0.771-0.516-1.158-0.772c0-0.257,0-0.515,0-0.771c-0.386-0.258-0.772-0.516-1.158-0.772
	c0-0.257,0-0.514,0-0.771c-0.257-0.129-0.515-0.258-0.772-0.387c-0.128-0.386-0.257-0.771-0.386-1.158
	c-0.386-0.256-0.772-0.515-1.158-0.771c0-0.258,0-0.517,0-0.772c-0.515-0.385-1.03-0.771-1.544-1.157c0-0.257,0-0.515,0-0.771
	c-0.643-0.515-1.287-1.028-1.93-1.544c-0.128-0.386-0.257-0.771-0.386-1.158c-0.257-0.127-0.515-0.257-0.772-0.386
	c0-0.258,0-0.515,0-0.771c-0.763-1.02-3.289-1.162-3.859-1.932c0-0.258,0-0.514,0-0.771c-0.129,0-0.258,0-0.386,0
	c-0.128-0.9-0.257-1.801-0.386-2.701c-0.129,0-0.257,0-0.387,0c-0.439-0.439-0.001-0.154-0.772-0.387
	c-0.128,0.644-0.256,1.287-0.385,1.931c-0.129,0-0.258,0-0.386,0c-0.414,1.407,0.524,2.673,0.771,3.474c0,0.772,0,1.545,0,2.316
	c0.387,1.156,0.772,2.314,1.159,3.475c0.386,0.258,0.772,0.514,1.158,0.771c0,0.257,0,0.514,0,0.771
	c1.287,1.158,2.573,2.315,3.859,3.475c0.129,0.386,0.258,0.771,0.386,1.158c1.029,0.899,2.059,1.802,3.088,2.701
	c0,0.258,0,0.515,0,0.771c0.257,0.128,0.515,0.258,0.772,0.386c0,0.259,0,0.515,0,0.772c1.158,1.027,2.316,2.059,3.474,3.087
	c0,0.515,0,1.028,0,1.544c-0.257,0-0.515,0-0.772,0c-0.386,0.515-0.772,1.029-1.158,1.544c-0.257,0-0.515,0-0.772,0
	c-0.257,0.386-0.515,0.772-0.772,1.157c-0.257,0-0.515,0-0.772,0c-0.258,0.388-0.514,0.772-0.772,1.158
	c-0.385,0.129-0.771,0.258-1.158,0.387c0,0.129,0,0.258,0,0.386c-0.957,0.794-1.452,1.368-3.087,1.544
	c-0.517-0.975-0.768-1.354-0.772-3.087c0.857-0.683,2.039-2.188,2.315-3.476c-1.672-1.414-3.345-2.83-5.017-4.244
	c0-0.258,0-0.516,0-0.772c-0.772-0.643-1.544-1.286-2.316-1.93c-2.629-2.634-4.964-5.604-5.79-10.036
	c-0.385,0.129-0.771,0.258-1.158,0.387c-0.1,1.133-0.533,2.262-0.772,3.088c-0.554,1.918,0.003,7.502,0.387,8.877
	c0,1.674,0,3.347,0,5.019c0.128,0,0.257,0,0.385,0c0,1.415,0,2.831,0,4.246c-0.128,0-0.257,0-0.385,0c0,1.801,0,3.603,0,5.403
	c0,0-0.26,0.072-0.387,0.771c-3.988,0-7.977,0-11.965,0c0.128-0.771,0.257-1.544,0.386-2.316c0.488-0.236,0.564-0.644,0.772-0.771
	c0.257,0,0.515,0,0.772,0c0-0.129,0-0.259,0-0.386c0.772-0.129,1.544-0.258,2.316-0.387c0-0.129,0-0.258,0-0.387
	c0.502-0.227,1.282,0.068,1.543-0.386c0-0.386,0-0.771,0-1.158c-0.128,0-0.258,0-0.386,0c0-0.386,0-0.771,0-1.157
	c-0.129,0-0.257,0-0.387,0c-0.128-2.96-0.256-5.919-0.385-8.878c0-1.157,0-2.315,0-3.474c-0.963-3.504,0.579-8.321,1.544-11.193
	c0.128-1.158,0.257-2.314,0.386-3.475c0.129,0,0.257,0,0.386,0c0-0.387,0-0.771,0-1.157c0.128,0,0.257,0,0.386,0
	c0-4.503,0-9.007,0-13.509c-0.894-0.337-1.701-0.393-3.087-0.386c-0.934,0.815-2.8-0.018-4.246,0.386c0,0.128,0,0.257,0,0.386
	c-1.415,0.129-2.831,0.257-4.246,0.386c-0.645-0.15-1.94-1.088-3.088-0.772c0,0.128,0,0.257,0,0.386
	c-0.9,0.129-1.801,0.257-2.702,0.386c-0.173-0.351-0.766-0.761-0.772-0.772c-0.128-0.9-0.256-1.801-0.385-2.702
	c-0.129,0-0.257,0-0.386,0c0-0.257,0-0.515,0-0.772c-0.129,0-0.257,0-0.387,0c0-0.515,0-1.029,0-1.544c-0.128,0-0.257,0-0.385,0
	c0-0.257,0-0.515,0-0.772c-0.129,0-0.257,0-0.387,0c0-0.386,0-0.772,0-1.158c-0.128,0-0.257,0-0.386,0c0-0.515,0-1.029,0-1.544
	c-0.129,0-0.257,0-0.386,0c0-0.257,0-0.515,0-0.772c-0.128,0-0.256,0-0.386,0c-0.257-1.158-0.515-2.316-0.772-3.474
	c-0.257,0-0.515,0-0.772,0c0-0.257,0-0.515,0-0.772c1.166-0.267,0.859-0.633,1.159-0.771c2.573-0.515,5.146-1.03,7.719-1.544
	c0.129,0.386,0.257,0.772,0.386,1.158c0.128,0,0.257,0,0.386,0c0,0.643,0,1.287,0,1.93c0.129,0,0.257,0,0.387,0
	c0,0.387,0,0.772,0,1.159c0.128,0,0.256,0,0.385,0c0,0.643,0,1.287,0,1.93c0.129,0,0.257,0,0.386,0c0,0.386,0,0.772,0,1.158
	c0.129,0,0.257,0,0.387,0c0,0.643,0,1.287,0,1.93c0.128,0,0.257,0,0.385,0c0.64,1.881-0.179,2.528,1.931,3.088
	c0,0.128,0,0.257,0,0.386c2.958-0.386,5.918-0.772,8.877-1.158c0.897-2.423,0.406-6.935,0.386-10.035c0.129,0,0.257,0,0.386,0
	c0.129-0.644,0.257-1.287,0.386-1.931c0.257-0.128,0.515-0.257,0.772-0.386c0.257-0.386,0.515-0.772,0.772-1.158
	c0.257,0,0.515,0,0.772,0c0.456-0.379,0.615-1.237,0.771-1.931c-0.9-0.771-1.801-1.543-2.702-2.315
	c-0.128-0.515-0.257-1.029-0.386-1.544c-0.129,0-0.257,0-0.386,0c0-0.9,0-1.801,0-2.702c0-0.643,0-1.287,0-1.93
	c0.129,0,0.257,0,0.386,0c0.365-1.64,1.846-3.092,3.474-3.474C48.907,13.79,48.907,13.533,48.907,13.275z"/>
</svg>
