<?xml version="1.0" standalone="no"?><!DOCTYPE svg PUBLIC "-//W3C//DTD SVG 1.1//EN" "http://www.w3.org/Graphics/SVG/1.1/DTD/svg11.dtd"><svg t="1639701767950" class="icon" viewBox="0 0 1024 1024" version="1.1" xmlns="http://www.w3.org/2000/svg" p-id="2301" xmlns:xlink="http://www.w3.org/1999/xlink" width="128" height="128"><defs><style type="text/css"></style></defs><path d="M404.413512 0H91.705382A89.613216 89.613216 0 0 0 2.360202 89.34518v312.70813a89.613216 89.613216 0 0 0 89.34518 89.345181h312.70813a89.613216 89.613216 0 0 0 89.34518-89.345181V89.34518a89.613216 89.613216 0 0 0-89.34518-89.34518z m13.401777 402.05331a13.580467 13.580467 0 0 1-13.401777 13.401777H91.705382a13.580467 13.580467 0 0 1-13.401777-13.401777V89.34518a13.580467 13.580467 0 0 1 13.401777-13.401777h312.70813a13.580467 13.580467 0 0 1 13.401777 13.401777zM712.75862 466.084023a89.628107 89.628107 0 0 0 126.363866 0l150.278593-150.293484a89.628107 89.628107 0 0 0 0-126.363866L839.122486 39.14808a89.628107 89.628107 0 0 0-126.363866 0L562.480027 189.426673a89.628107 89.628107 0 0 0 0 126.363866z m-96.58214-222.946006L766.469964 92.844533a13.669813 13.669813 0 0 1 18.941178 0l150.293484 150.293484a13.565577 13.565577 0 0 1 0 18.941178L785.411142 412.372679a13.669813 13.669813 0 0 1-18.941178 0L616.17648 262.079195a13.565577 13.565577 0 0 1 0-18.941178zM932.294618 532.601509h-312.70813a89.613216 89.613216 0 0 0-89.34518 89.345181v312.70813a89.613216 89.613216 0 0 0 89.34518 89.34518h312.70813a89.613216 89.613216 0 0 0 89.34518-89.34518v-312.70813a89.613216 89.613216 0 0 0-89.34518-89.345181z m13.401777 402.053311a13.595358 13.595358 0 0 1-13.401777 13.401777h-312.70813a13.595358 13.595358 0 0 1-13.401777-13.401777v-312.70813a13.580467 13.580467 0 0 1 13.401777-13.401777h312.70813a13.580467 13.580467 0 0 1 13.401777 13.401777zM404.413512 532.601509H91.705382a89.613216 89.613216 0 0 0-89.34518 89.345181v312.70813a89.613216 89.613216 0 0 0 89.34518 89.34518h312.70813a89.613216 89.613216 0 0 0 89.34518-89.34518v-312.70813a89.613216 89.613216 0 0 0-89.34518-89.345181z m13.401777 402.053311a13.595358 13.595358 0 0 1-13.401777 13.401777H91.705382a13.595358 13.595358 0 0 1-13.401777-13.401777v-312.70813a13.580467 13.580467 0 0 1 13.401777-13.401777h312.70813a13.580467 13.580467 0 0 1 13.401777 13.401777z" fill="#2c2c2c" p-id="2302"></path></svg>