<?xml version="1.0" encoding="utf-8"?>
<!-- Generator: Adobe Illustrator 23.0.0, SVG Export Plug-In . SVG Version: 6.00 Build 0)  -->
<svg version="1.1" id="图层_1" xmlns="http://www.w3.org/2000/svg" xmlns:xlink="http://www.w3.org/1999/xlink" x="0px" y="0px"
	 viewBox="0 0 16 16" style="enable-background:new 0 0 16 16;" xml:space="preserve">
<style type="text/css">
	.st0{fill:#F4D30B;}
	.st1{fill:#FFFFFF;}
</style>
<path class="st0" d="M4.7,1.8C4.8,2,5,2.2,5.2,2.2c0,0,0.1,0,0.1,0c0.3-0.1,0.5-0.3,0.4-0.6L5.5,0.4C5.4,0.1,5.1,0,4.9,0
	C4.6,0.1,4.4,0.4,4.5,0.6L4.7,1.8z M1,3.5l1,0.6C2.3,4.3,2.6,4.2,2.7,4c0.1-0.2,0.1-0.5-0.2-0.7l-1-0.6C1.3,2.5,1,2.6,0.9,2.8
	C0.7,3.1,0.8,3.4,1,3.5z M0.6,8l1.1-0.3c0.3-0.1,0.5-0.3,0.4-0.6C2.1,6.9,1.8,6.7,1.6,6.8l0,0L0.4,7C0.1,7.1,0,7.4,0,7.6
	c0.1,0.2,0.3,0.4,0.5,0.4C0.6,8.1,0.6,8.1,0.6,8z M10.9,5.8c0,0,0.1,0,0.1,0l1.1-0.3c0.3-0.1,0.5-0.3,0.4-0.6
	c-0.1-0.3-0.3-0.5-0.6-0.4l-1.1,0.3c-0.3,0.1-0.5,0.3-0.4,0.6C10.4,5.6,10.6,5.8,10.9,5.8z M8.5,2.7c0.2,0.2,0.6,0.1,0.7-0.2l0.6-1
	C10,1.3,9.9,1,9.7,0.9C9.5,0.7,9.2,0.8,9,1L8.4,2C8.2,2.3,8.3,2.6,8.5,2.7z M2.8,7C2.9,7.3,3,7.6,3.2,7.9c0.3-0.1,0.6-0.3,0.9-0.5
	C4,7.2,3.9,7,3.8,6.8c-0.3-1.3,0.6-2.7,1.9-3c1.3-0.3,2.7,0.5,3,1.9c0,0,0,0,0,0l0,0c0.4,0,0.7,0.1,1.1,0.3c0-0.2,0-0.3-0.1-0.5
	C9.3,3.6,7.4,2.4,5.5,2.8S2.4,5.1,2.8,7z"/>
<path class="st1" d="M12.5,8.5c-0.1,0-0.3,0-0.4,0c-1.5-2.2-4.4-2.9-6.7-1.4C4.8,7.5,4.3,8,4,8.5c-0.1,0-0.3,0-0.4,0
	c-1.8,0-3.3,1.5-3.3,3.3c0,1.8,1.5,3.3,3.3,3.3C4,15,4.4,15,4.8,14.8c1.8,1.6,4.5,1.6,6.3,0c1.7,0.7,3.6-0.1,4.3-1.7
	s-0.1-3.6-1.7-4.3C13.3,8.6,12.9,8.5,12.5,8.5z"/>
</svg>
