<svg xmlns="http://www.w3.org/2000/svg" xmlns:xlink="http://www.w3.org/1999/xlink" width="432" height="958" viewBox="0 0 432 958">
  <defs>
    <linearGradient id="linear-gradient" x1="0.5" y1="1" x2="0.5" gradientUnits="objectBoundingBox">
      <stop offset="0" stop-color="#0f1e41" stop-opacity="0.698"/>
      <stop offset="1" stop-color="#131b2e" stop-opacity="0.698"/>
    </linearGradient>
    <linearGradient id="linear-gradient-2" y1="0" y2="1" xlink:href="#linear-gradient"/>
  </defs>
  <g id="组_2639" data-name="组 2639" transform="translate(-1454 -88)">
    <g id="减去_1" data-name="减去 1" transform="translate(1886 1046) rotate(180)" fill="url(#linear-gradient)">
      <path d="M 96.02217102050781 957.5001831054688 L 15.00041389465332 957.4999389648438 C 11.12723731994629 957.4999389648438 7.485825538635254 955.9915771484375 4.747002124786377 953.2527465820312 C 2.008414030075073 950.51416015625 0.5001786947250366 946.8732299804688 0.5001786947250366 943.0003051757812 L 0.5001786947250366 277.8785705566406 L 16.78759002685547 266.4082946777344 L 16.99970817565918 266.2588806152344 L 16.99970817565918 265.9994812011719 L 16.99982643127441 65.99971008300781 L 16.99982643127441 65.74030303955078 L 16.7877082824707 65.59088897705078 L 0.5000618100166321 54.1207389831543 L 0.5001786947250366 14.99935913085938 C 0.5001786947250366 11.1264181137085 2.008414030075073 7.485477447509766 4.747002124786377 4.746889114379883 C 7.485708236694336 2.008418321609497 11.12712001800537 0.50018310546875 15.00041389465332 0.50018310546875 L 416.9996948242188 0.50018310546875 C 420.8727722167969 0.50018310546875 424.5141906738281 2.008418321609497 427.2531127929688 4.746889114379883 C 429.9918212890625 7.48571252822876 431.5001831054688 11.12677097320557 431.5001831054688 14.99935913085938 L 431.5001831054688 639.5292358398438 L 417.2123107910156 649.5910034179688 L 417.0001831054688 649.7404174804688 L 417.0001831054688 649.9998168945312 L 417.0003051757812 849.9996948242188 L 417.0003051757812 850.2590942382812 L 417.21240234375 850.4085083007812 L 431.5000610351562 860.470458984375 L 431.5001831054688 943.0003051757812 C 431.5001831054688 946.8728637695312 429.9918212890625 950.5139770507812 427.2531127929688 953.2527465820312 C 424.5140686035156 955.9915771484375 420.8726501464844 957.4999389648438 416.9996948242188 957.4999389648438 L 335.9775085449219 957.4999389648438 L 316.4086608886719 929.7118530273438 L 316.2592468261719 929.4996948242188 L 315.9998168945312 929.4996948242188 L 116.0000610351562 929.4999389648438 L 115.7406463623047 929.4999389648438 L 115.5912399291992 929.7120361328125 L 96.02217102050781 957.5001831054688 Z" stroke="none"/>
      <path d="M 95.76272583007812 957.0001831054688 L 115.4812393188477 928.9999389648438 L 316.5186462402344 928.9996948242188 L 316.8174743652344 929.4239501953125 L 336.2369689941406 956.9999389648438 L 416.9996948242188 956.9999389648438 C 420.7391052246094 956.9999389648438 424.2548828125 955.5435791015625 426.8995971679688 952.8992309570312 C 429.5438232421875 950.2548828125 431.0001831054688 946.7393798828125 431.0001831054688 943.0003051757812 L 431.0000610351562 860.7299194335938 L 416.5003051757812 850.5185546875 L 416.5001831054688 649.4810180664062 L 431.0001831054688 639.269775390625 L 431.0001831054688 14.99935913085938 C 431.0001831054688 11.2603006362915 429.5438232421875 7.744771480560303 426.8995971679688 5.100535869598389 C 424.255126953125 2.456418514251709 420.7392272949219 1.00018310546875 416.9996948242188 1.00018310546875 L 15.00041389465332 1.00018310546875 C 11.26064968109131 1.00018310546875 7.744766712188721 2.456418514251709 5.100531578063965 5.100535869598389 C 2.456413984298706 7.74453592300415 1.000178694725037 11.26006507873535 1.000178694725037 14.99935913085938 L 1.000062584877014 53.86129379272461 L 17.49982643127441 65.48088836669922 L 17.49970817565918 266.518310546875 L 1.000178694725037 278.1380004882812 L 1.000178694725037 943.0003051757812 C 1.000178694725037 946.7396240234375 2.456413984298706 950.255126953125 5.100531578063965 952.8992309570312 C 7.745002269744873 955.5435791015625 11.26076698303223 956.9999389648438 15.00041389465332 956.9999389648438 L 95.76272583007812 957.0001831054688 M 96.28159332275391 958.0001831054688 L 15.00041389465332 957.9999389648438 C 10.99370765686035 957.9999389648438 7.226649284362793 956.439453125 4.393472671508789 953.6063232421875 C 1.560413956642151 950.7733764648438 0.0001786822103895247 947.0066528320312 0.0001786822103895247 943.0003051757812 L 0.0001786822103895247 277.6191101074219 L 16.49970817565918 265.9994812011719 L 16.49982643127441 65.99971008300781 L 6.103515625e-05 54.38018417358398 L 0.0001786822103895247 14.99935913085938 C 0.0001786822103895247 10.99300670623779 1.560413956642151 7.226300716400146 4.393472671508789 4.393359661102295 C 7.226649284362793 1.560300707817078 10.99370765686035 0.00018310546875 15.00041389465332 0.00018310546875 L 416.9996948242188 0.00018310546875 C 421.0065307617188 0.00018310546875 424.7732238769531 1.560300707817078 427.6066589355469 4.393359661102295 C 430.439697265625 7.226418495178223 432.0001831054688 10.99300670623779 432.0001831054688 14.99935913085938 L 432.0001831054688 639.7886352539062 L 417.5001831054688 649.9998168945312 L 417.5003051757812 849.9996948242188 L 432.0000610351562 860.2109985351562 L 432.0001831054688 943.0003051757812 C 432.0001831054688 947.0066528320312 430.439697265625 950.7732543945312 427.6066589355469 953.6063232421875 C 424.7732238769531 956.439453125 421.0062866210938 957.9999389648438 416.9996948242188 957.9999389648438 L 335.7180480957031 957.9999389648438 L 315.9998168945312 929.9996948242188 L 116.0000610351562 929.9999389648438 L 96.28159332275391 958.0001831054688 Z" stroke="none" fill="#18acff"/>
    </g>
    <g id="交叉_6" data-name="交叉 6" transform="translate(1791.127 118) rotate(180)" fill="url(#linear-gradient-2)">
      <path d="M 241.2897644042969 29.49975204467773 L 0.9636477828025818 29.49975204467773 L 21.38613700866699 0.500002920627594 L 220.8672790527344 0.500002920627594 L 241.2897644042969 29.49975204467773 Z" stroke="none"/>
      <path d="M 21.64555358886719 1.000003814697266 L 1.927291870117188 28.99975204467773 L 240.3261260986328 28.99975204467773 L 220.6078643798828 1.000003814697266 L 21.64555358886719 1.000003814697266 M 21.126708984375 3.814697265625e-06 L 221.126708984375 3.814697265625e-06 L 242.2534332275391 29.99975204467773 L -1.52587890625e-05 29.99975204467773 L 21.126708984375 3.814697265625e-06 Z" stroke="none" fill="#18acff"/>
    </g>
    <path id="减去_110" data-name="减去 110" d="M5.351,0h0A18.424,18.424,0,0,1,0,9.205H.089a14.652,14.652,0,0,1,5.411-1,14.832,14.832,0,0,1,5.057.864A18.437,18.437,0,0,1,5.351,0Z" transform="translate(1769.702 96.443) rotate(90)" fill="#00a3ff"/>
    <path id="减去_112" data-name="减去 112" d="M5.351,0h0A18.424,18.424,0,0,1,0,9.205H.089a14.652,14.652,0,0,1,5.411-1,14.832,14.832,0,0,1,5.057.864A18.437,18.437,0,0,1,5.351,0Z" transform="translate(1570.299 107) rotate(-90)" fill="#00a3ff"/>
    <path id="减去_114" data-name="减去 114" d="M5.351,0h0A18.424,18.424,0,0,1,0,9.205H.089a14.652,14.652,0,0,1,5.411-1,14.832,14.832,0,0,1,5.057.864A18.437,18.437,0,0,1,5.351,0Z" transform="translate(1764.306 96.443) rotate(90)" fill="#00a3ff" opacity="0.2"/>
    <path id="减去_116" data-name="减去 116" d="M5.351,0h0A18.424,18.424,0,0,1,0,9.205H.089a14.652,14.652,0,0,1,5.411-1,14.832,14.832,0,0,1,5.057.864A18.437,18.437,0,0,1,5.351,0Z" transform="translate(1575.695 107) rotate(-90)" fill="#00a3ff" opacity="0.2"/>
    <ellipse id="椭圆_310" data-name="椭圆 310" cx="4" cy="4" rx="4" ry="4" transform="translate(1861 98)" fill="#00a3ff"/>
    <ellipse id="椭圆_311" data-name="椭圆 311" cx="4" cy="4" rx="4" ry="4" transform="translate(1849 98)" fill="#00a3ff" opacity="0.5"/>
    <ellipse id="椭圆_312" data-name="椭圆 312" cx="4" cy="4" rx="4" ry="4" transform="translate(1837 98)" fill="#00a3ff" opacity="0.2"/>
    <ellipse id="椭圆_315" data-name="椭圆 315" cx="4" cy="4" rx="4" ry="4" transform="translate(1494 98)" fill="#00a3ff" opacity="0.2"/>
    <ellipse id="椭圆_313" data-name="椭圆 313" cx="4" cy="4" rx="4" ry="4" transform="translate(1482 98)" fill="#00a3ff" opacity="0.5"/>
    <ellipse id="椭圆_314" data-name="椭圆 314" cx="4" cy="4" rx="4" ry="4" transform="translate(1470 98)" fill="#00a3ff"/>
    <path id="路径_744" data-name="路径 744" d="M395.668,0H31.527L0-31.105V-577.816" transform="translate(1466.832 1033.5)" fill="none" stroke="#18acff" stroke-linecap="round" stroke-width="1" stroke-dasharray="2 4"/>
    <path id="路径_745" data-name="路径 745" d="M395.668,0H31.527L0-31.105V-577.816" transform="translate(1466.832 1033.5)" fill="none" stroke="#18acff" stroke-width="5" stroke-dasharray="0 3"/>
    <path id="路径_746" data-name="路径 746" d="M0,0V20.148H20.148Z" transform="translate(1467.001 1013.852)" fill="#46a2f8" opacity="0.3"/>
    <path id="路径_747" data-name="路径 747" d="M0,0V12.668H12.668Z" transform="translate(1467 1021.332)" fill="#46a2f8" opacity="0.7"/>
  </g>
</svg>
